<svg xmlns="http://www.w3.org/2000/svg" xmlns:svg="http://www.w3.org/2000/svg" id="svg2" width="12" height="12" version="1.1" viewBox="0 0 12 12"><metadata id="metadata7"/><path style="fill:#c87137;fill-opacity:1" id="rect3336" d="m 7.384615,5.53845 q 0,-0.1875 -0.137019,-0.3245 -0.137019,-0.137 -0.324519,-0.137 l -1.846154,0 q -0.1875,0 -0.324519,0.137 -0.137019,0.137 -0.137019,0.3245 0,0.1875 0.137019,0.3245 0.137019,0.1371 0.324519,0.1371 l 1.846154,0 q 0.1875,0 0.324519,-0.1371 0.137019,-0.137 0.137019,-0.3245 z m 4.153847,-1.3846 0,6.9231 q 0,0.1875 -0.13702,0.3245 -0.137019,0.137 -0.324519,0.137 l -10.153846,0 q -0.1875,0 -0.324519,-0.137 -0.13702,-0.137 -0.13702,-0.3245 l 0,-6.9231 q 0,-0.1875 0.13702,-0.3245 0.137019,-0.137 0.324519,-0.137 l 10.153846,0 q 0.1875,0 0.324519,0.137 0.13702,0.137 0.13702,0.3245 z M 12,0.92304952 12,2.76925 q 0,0.1875 -0.137019,0.3245 -0.137019,0.137 -0.324519,0.137 l -11.076924,0 q -0.1875,0 -0.324519,-0.137 Q 0,2.95675 0,2.76925 L 0,0.92304952 q 0,-0.1875 0.137019,-0.3245 0.137019,-0.137 0.324519,-0.137 l 11.076924,0 q 0.1875,0 0.324519,0.137 Q 12,0.73554952 12,0.92304952 Z"/></svg>