<svg xmlns="http://www.w3.org/2000/svg" xmlns:svg="http://www.w3.org/2000/svg" id="svg2" width="12" height="12" version="1.1" viewBox="0 0 12 12"><metadata id="metadata7"/><path style="fill:#fd5;fill-opacity:1;stroke:none;stroke-width:.75;stroke-miterlimit:4;stroke-dasharray:none;stroke-opacity:.94117647" id="path5403" d="M 10.710201,9.7746129 C 10.534741,9.9935633 8.1646294,9.3561317 7.9187365,9.4912697 7.6728436,9.6264078 6.940451,11.968917 6.6615605,11.999669 6.3826701,12.030422 5.1574803,9.9037674 4.8880508,9.825452 4.6186212,9.7471365 2.4443371,10.885661 2.2253866,10.710201 2.0064362,10.534741 2.6438679,8.1646289 2.5087298,7.918736 2.3735917,7.6728432 0.03108224,6.9404506 3.3003974e-4,6.6615601 -0.03042215,6.3826696 2.0962321,5.1574798 2.1745476,4.8880503 2.252863,4.6186207 1.1143385,2.4443366 1.2897987,2.2253862 1.465259,2.0064357 3.8353706,2.6438674 4.0812635,2.5087293 4.3271564,2.3735912 5.059549,0.03108176 5.3384395,3.295629e-4 5.6173299,-0.03042263 6.8425197,2.0962316 7.1119492,2.1745471 7.3813788,2.2528625 9.5556629,1.114338 9.7746134,1.2897983 9.9935638,1.4652585 9.3561321,3.8353702 9.4912702,4.081263 9.6264083,4.3271559 11.968918,5.0595485 11.99967,5.338439 12.030422,5.6173294 9.9037679,6.8425192 9.8254524,7.1119488 9.747137,7.3813783 10.885662,9.5556624 10.710201,9.7746129 Z"/></svg>